<mxfile host="app.diagrams.net" agent="Mozilla/5.0 (Windows NT 10.0; Win64; x64) AppleWebKit/537.36 (KHTML, like Gecko) Chrome/127.0.0.0 Safari/537.36" version="24.7.7">
  <diagram name="Page-1" id="AQaF876wp-JOgFHgPSV5">
    <mxGraphModel dx="2227" dy="707" grid="1" gridSize="10" guides="1" tooltips="1" connect="1" arrows="1" fold="1" page="1" pageScale="1" pageWidth="827" pageHeight="1169" math="0" shadow="0">
      <root>
        <mxCell id="0" />
        <mxCell id="1" parent="0" />
        <mxCell id="ulAnbBK6Fc82D0atliAh-1" value="&lt;p&gt;&lt;strong&gt;&lt;font style=&quot;font-size: 17px;&quot;&gt;Installation &amp;amp; configuration de serveur Zabbix&lt;/font&gt;&lt;/strong&gt;&lt;/p&gt;" style="rounded=0;whiteSpace=wrap;html=1;strokeColor=#7EA6E0;" vertex="1" parent="1">
          <mxGeometry x="-70" y="290" width="246" height="80" as="geometry" />
        </mxCell>
        <mxCell id="ulAnbBK6Fc82D0atliAh-2" value="&lt;p&gt;&lt;strong&gt;&lt;font style=&quot;font-size: 17px;&quot;&gt;Configuration de la base de donnée&lt;/font&gt;&lt;/strong&gt;&lt;/p&gt;" style="rounded=0;whiteSpace=wrap;html=1;strokeColor=#7EA6E0;" vertex="1" parent="1">
          <mxGeometry x="267" y="290" width="246" height="80" as="geometry" />
        </mxCell>
        <mxCell id="ulAnbBK6Fc82D0atliAh-3" value="&lt;p&gt;&lt;strong&gt;&lt;font style=&quot;font-size: 17px;&quot;&gt;Installation &amp;amp; configuration des agents Zabbix&lt;/font&gt;&lt;/strong&gt;&lt;br&gt;&lt;/p&gt;" style="rounded=0;whiteSpace=wrap;html=1;strokeColor=#7EA6E0;" vertex="1" parent="1">
          <mxGeometry x="604" y="290" width="246" height="80" as="geometry" />
        </mxCell>
        <mxCell id="ulAnbBK6Fc82D0atliAh-4" value="&lt;p&gt;&lt;/p&gt;&lt;ul style=&quot;forced-color-adjust: none; color: rgb(0, 0, 0); font-family: Helvetica; font-size: 12px; font-style: normal; font-variant-ligatures: normal; font-variant-caps: normal; font-weight: 400; letter-spacing: normal; orphans: 2; text-align: left; text-indent: 0px; text-transform: none; widows: 2; word-spacing: 0px; -webkit-text-stroke-width: 0px; white-space: normal; background-color: rgb(251, 251, 251); text-decoration-thickness: initial; text-decoration-style: initial; text-decoration-color: initial;&quot;&gt;&lt;/ul&gt;&lt;p&gt;&lt;/p&gt;&lt;p style=&quot;forced-color-adjust: none; color: rgb(0, 0, 0); font-family: Helvetica; font-size: 12px; font-style: normal; font-variant-ligatures: normal; font-variant-caps: normal; font-weight: 400; letter-spacing: normal; orphans: 2; text-indent: 0px; text-transform: none; widows: 2; word-spacing: 0px; -webkit-text-stroke-width: 0px; white-space: normal; background-color: rgb(251, 251, 251); text-decoration-thickness: initial; text-decoration-style: initial; text-decoration-color: initial;&quot;&gt;&lt;/p&gt;&lt;p&gt;&lt;/p&gt;&lt;p&gt;&lt;/p&gt;&lt;h3&gt;&lt;strong&gt;&lt;font style=&quot;font-size: 17px;&quot;&gt;Préparation des Dashboards&lt;/font&gt;&lt;/strong&gt;&lt;/h3&gt;" style="rounded=0;whiteSpace=wrap;html=1;strokeColor=#7EA6E0;" vertex="1" parent="1">
          <mxGeometry x="940" y="290" width="240" height="80" as="geometry" />
        </mxCell>
        <mxCell id="ulAnbBK6Fc82D0atliAh-12" value="1" style="ellipse;whiteSpace=wrap;html=1;aspect=fixed;rotation=0;gradientColor=#0057D2;strokeColor=none;gradientDirection=east;fillColor=#2089EB;rounded=0;pointerEvents=0;fontFamily=Helvetica;fontSize=16;fontColor=#FFFFFF;spacingTop=4;spacingBottom=4;spacingLeft=4;spacingRight=4;points=[];fontStyle=1" vertex="1" parent="1">
          <mxGeometry x="36" y="270" width="34" height="34" as="geometry" />
        </mxCell>
        <mxCell id="ulAnbBK6Fc82D0atliAh-13" value="2" style="ellipse;whiteSpace=wrap;html=1;aspect=fixed;rotation=0;gradientColor=#0057D2;strokeColor=none;gradientDirection=east;fillColor=#2395FF;rounded=0;pointerEvents=0;fontFamily=Helvetica;fontSize=16;fontColor=#FFFFFF;spacingTop=4;spacingBottom=4;spacingLeft=4;spacingRight=4;points=[];fontStyle=1" vertex="1" parent="1">
          <mxGeometry x="375" y="272" width="30" height="30" as="geometry" />
        </mxCell>
        <mxCell id="ulAnbBK6Fc82D0atliAh-14" value="3" style="ellipse;whiteSpace=wrap;html=1;aspect=fixed;rotation=0;gradientColor=#0057D2;strokeColor=none;gradientDirection=east;fillColor=#2395FF;rounded=0;pointerEvents=0;fontFamily=Helvetica;fontSize=16;fontColor=#FFFFFF;spacingTop=4;spacingBottom=4;spacingLeft=4;spacingRight=4;points=[];fontStyle=1" vertex="1" parent="1">
          <mxGeometry x="710" y="270" width="30" height="30" as="geometry" />
        </mxCell>
        <mxCell id="ulAnbBK6Fc82D0atliAh-15" value="4" style="ellipse;whiteSpace=wrap;html=1;aspect=fixed;rotation=0;gradientColor=#0057D2;strokeColor=none;gradientDirection=east;fillColor=#2395FF;rounded=0;pointerEvents=0;fontFamily=Helvetica;fontSize=16;fontColor=#FFFFFF;spacingTop=4;spacingBottom=4;spacingLeft=4;spacingRight=4;points=[];fontStyle=1" vertex="1" parent="1">
          <mxGeometry x="1040" y="272" width="30" height="30" as="geometry" />
        </mxCell>
        <mxCell id="ulAnbBK6Fc82D0atliAh-18" value="" style="shape=flexArrow;endArrow=classic;html=1;rounded=0;exitX=1;exitY=0.5;exitDx=0;exitDy=0;entryX=0;entryY=0.5;entryDx=0;entryDy=0;width=11.304347826086957;endSize=7.373913043478262;endWidth=19.054820415879018;strokeColor=#7EA6E0;" edge="1" parent="1">
          <mxGeometry width="50" height="50" relative="1" as="geometry">
            <mxPoint x="850" y="329.33000000000004" as="sourcePoint" />
            <mxPoint x="940" y="329.76" as="targetPoint" />
          </mxGeometry>
        </mxCell>
        <mxCell id="ulAnbBK6Fc82D0atliAh-19" value="" style="shape=flexArrow;endArrow=classic;html=1;rounded=0;exitX=1;exitY=0.5;exitDx=0;exitDy=0;entryX=0;entryY=0.5;entryDx=0;entryDy=0;width=11.304347826086957;endSize=7.373913043478262;endWidth=19.054820415879018;strokeColor=#7EA6E0;" edge="1" parent="1">
          <mxGeometry width="50" height="50" relative="1" as="geometry">
            <mxPoint x="514" y="329.33000000000004" as="sourcePoint" />
            <mxPoint x="604" y="329.76" as="targetPoint" />
          </mxGeometry>
        </mxCell>
        <mxCell id="ulAnbBK6Fc82D0atliAh-20" value="" style="shape=flexArrow;endArrow=classic;html=1;rounded=0;exitX=1;exitY=0.5;exitDx=0;exitDy=0;entryX=0;entryY=0.5;entryDx=0;entryDy=0;width=11.304347826086957;endSize=7.373913043478262;endWidth=19.054820415879018;strokeColor=#7EA6E0;" edge="1" parent="1">
          <mxGeometry width="50" height="50" relative="1" as="geometry">
            <mxPoint x="177" y="329.33000000000004" as="sourcePoint" />
            <mxPoint x="267" y="329.76" as="targetPoint" />
          </mxGeometry>
        </mxCell>
      </root>
    </mxGraphModel>
  </diagram>
</mxfile>
